<svg xmlns="http://www.w3.org/2000/svg" width="110.782" height="110.782" viewBox="0 0 110.782 110.782"><defs><style>.a{fill:#fff;fill-rule:evenodd;}</style></defs><path class="a" d="M56.058.667a55.391,55.391,0,1,0,55.391,55.391A55.391,55.391,0,0,0,56.058.667Zm0,11.078A44.313,44.313,0,1,1,11.745,56.058,44.313,44.313,0,0,1,56.058,11.745ZM39.441,31.132a8.309,8.309,0,1,0,8.309,8.309A8.309,8.309,0,0,0,39.441,31.132ZM76.592,43.357,43.357,76.592a5.539,5.539,0,0,1-7.833-7.833L68.758,35.524a5.539,5.539,0,0,1,7.833,7.833ZM64.367,72.675a8.309,8.309,0,1,1,8.309,8.309A8.309,8.309,0,0,1,64.367,72.675Z" transform="translate(-0.667 -0.667)"/></svg>