<svg width="64" height="64" viewBox="0 0 64 64" fill="none" xmlns="http://www.w3.org/2000/svg">
<g clip-path="url(#clip0)">
<path d="M49.6635 21.3813H46.3809C45.6449 21.3813 45.0475 21.9787 45.0475 22.7147C45.0475 23.4507 45.6449 24.048 46.3809 24.048H49.6635C55.8022 24.048 60.7969 29.6107 60.7969 36.4453C60.7969 42.4773 56.9302 47.6133 51.6022 48.656C50.9755 48.7787 50.5249 49.3253 50.5249 49.9627V56.8267L41.9089 49.1813C41.6635 48.9653 41.3489 48.8453 41.0235 48.8453H37.0502C32.5942 48.8453 28.5755 45.896 26.8155 41.3307C26.5515 40.6427 25.7782 40.3067 25.0929 40.5653C24.4049 40.832 24.0635 41.6027 24.3275 42.288C26.4875 47.8933 31.4822 51.512 37.0502 51.512H40.5195L50.9755 60.7893C51.2262 61.0107 51.5409 61.1253 51.8609 61.1253C52.0449 61.1253 52.2342 61.0853 52.4075 61.008C52.8875 60.792 53.1942 60.3173 53.1942 59.792V51.0107C59.2102 49.288 63.4689 43.3413 63.4689 36.4427C63.4635 28.1387 57.2742 21.3813 49.6635 21.3813Z" fill="#999999"/>
<path d="M49.4237 30.5467C48.9011 30.0267 48.0557 30.0347 47.5384 30.5547L43.3917 34.7333L42.6504 33.9867C42.1331 33.464 41.2877 33.4613 40.7651 33.9787C40.2451 34.4987 40.2397 35.3413 40.7597 35.8667L41.5144 36.6267L37.3571 40.816C36.8371 41.3387 36.8424 42.184 37.3624 42.7013C37.6237 42.9627 37.9651 43.0907 38.3037 43.0907C38.6477 43.0907 38.9891 42.9573 39.2477 42.6987L43.3944 38.52L47.5411 42.6987C47.8024 42.9627 48.1437 43.0907 48.4851 43.0907C48.8237 43.0907 49.1651 42.9627 49.4264 42.7013C49.9464 42.184 49.9517 41.3387 49.4317 40.816L45.2717 36.6267L49.4317 32.4347C49.9491 31.9093 49.9437 31.064 49.4237 30.5467Z" fill="#999999"/>
<path d="M42.4319 21.408C42.4319 12.592 35.8692 5.41867 27.8026 5.41867H14.3439C6.27725 5.41867 -0.288086 12.5893 -0.288086 21.408C-0.288086 28.7547 4.25858 35.0827 10.6719 36.888V46.328C10.6719 46.8533 10.9812 47.328 11.4586 47.544C11.6346 47.6213 11.8212 47.6613 12.0052 47.6613C12.3252 47.6613 12.6426 47.5467 12.8906 47.3253L24.0692 37.3973H27.8026C35.8692 37.3973 42.4319 30.224 42.4319 21.408ZM23.5626 34.7307C23.2346 34.7307 22.9199 34.8507 22.6772 35.0667L13.3386 43.36V35.8347C13.3386 35.1973 12.8879 34.648 12.2612 34.5253C6.53591 33.4053 2.37858 27.888 2.37858 21.408C2.37858 14.064 7.74658 8.08534 14.3439 8.08534H27.8026C34.3999 8.08534 39.7652 14.0613 39.7652 21.408C39.7652 28.7547 34.3972 34.7307 27.8026 34.7307H23.5626Z" fill="#999999"/>
<path d="M29.5095 15.08C28.9681 14.5787 28.1228 14.6107 27.6241 15.1493L18.0561 25.4587L14.1361 21.2347C13.6348 20.6987 12.7921 20.6613 12.2508 21.1653C11.7121 21.6667 11.6801 22.512 12.1815 23.0507L17.0775 28.328C17.0881 28.3413 17.1041 28.344 17.1175 28.3573C17.1308 28.3707 17.1335 28.3867 17.1468 28.4C17.2241 28.472 17.3175 28.512 17.4081 28.5627C17.4588 28.592 17.5015 28.632 17.5548 28.6533C17.7148 28.72 17.8855 28.7547 18.0561 28.7547C18.2268 28.7547 18.3948 28.7173 18.5575 28.6533C18.6108 28.632 18.6535 28.5893 18.7068 28.56C18.7948 28.5093 18.8881 28.472 18.9655 28.4C18.9788 28.3867 18.9841 28.3707 18.9948 28.3573C19.0081 28.3467 19.0241 28.3413 19.0348 28.328L29.5815 16.9653C30.0801 16.424 30.0481 15.5813 29.5095 15.08Z" fill="#999999"/>
</g>
<defs>
<clipPath id="clip0">
<rect width="64" height="64" fill="white"/>
</clipPath>
</defs>
</svg>
