<svg width="194" height="24" viewBox="0 0 194 24" fill="none" xmlns="http://www.w3.org/2000/svg">
<g clip-path="url(#clip0)">
<path d="M78.3929 11.7712C78.3929 10.6654 78.3929 9.56445 78.3929 8.45862C78.3929 8.01241 78.5293 7.87176 79.0194 7.86691C81.1517 7.86691 81.1517 7.83781 81.1517 9.91365C81.1517 12.2029 81.4043 12.4454 83.7892 12.4309C84.9665 12.4309 86.1488 12.4309 87.3261 12.4309C88.5034 12.4309 89.0845 11.8246 89.0036 10.7042C88.9259 9.66055 88.7311 8.62797 88.4226 7.6244C88.2861 7.17334 88.4226 6.95509 88.8925 6.80959C90.8832 6.20817 90.8681 6.19362 91.2976 8.22097C91.5338 9.24434 91.6373 10.2918 91.6058 11.3396C91.5751 12.3056 91.1599 13.2236 90.4456 13.9047C89.7313 14.5858 88.7722 14.9783 87.7657 15.0014C85.6436 15.0014 83.5113 15.2488 81.3942 14.8753C81.0456 14.8123 81.0506 15.0111 81.0102 15.2391C80.4291 18.8281 77.8169 20.8943 73.4867 20.6712C73.1027 20.6712 72.9006 20.5596 72.941 20.1862C72.941 20.1328 72.941 20.0795 72.941 20.0261C72.8905 18.1831 72.8905 18.1831 74.765 18.0861C77.1903 17.9503 78.1958 17.0191 78.3373 14.691C78.3929 13.721 78.3373 12.751 78.3373 11.7809L78.3929 11.7712Z" fill="white"/>
<path d="M117.688 15.0837C116.325 14.9883 114.98 14.7259 113.686 14.3028C113.181 14.1719 113.181 13.9585 113.313 13.5365C113.863 11.6886 113.848 11.6838 115.748 12.13C116.798 12.4281 117.895 12.5399 118.987 12.4598C120.346 12.3095 120.614 11.7953 119.851 10.7283C118.709 9.13749 117.577 7.53695 116.41 5.96552C116.071 5.50961 115.985 5.27195 116.582 4.92274C118.295 3.92847 118.274 3.89937 119.366 5.48051C120.25 6.75123 121.058 8.07531 122.013 9.30239C124.004 11.8584 122.413 14.4823 119.618 14.914C118.98 15.0122 118.335 15.069 117.688 15.0837Z" fill="white"/>
<path d="M79.4086 0.484895C79.7156 0.529531 79.9946 0.681548 80.1918 0.911704C81.0205 1.71197 81.839 2.52679 82.7182 3.30281C83.0517 3.60351 83.0011 3.78782 82.7182 4.05457C81.7076 5.06824 81.7076 5.07794 80.6314 4.05457C79.3531 2.8275 79.3531 2.8275 78.0697 4.05457L78.009 4.11277C76.9985 5.08279 76.6549 5.04399 75.806 3.87997C75.6443 3.65686 75.71 3.56471 75.8667 3.39496C76.8014 2.50739 77.7311 1.61012 78.6659 0.7177C78.7674 0.633515 78.8854 0.569573 79.0129 0.529603C79.1404 0.489633 79.2749 0.474435 79.4086 0.484895Z" fill="white"/>
<path d="M159.692 0.485113C159.98 0.507775 160.248 0.636351 160.439 0.84402C161.314 1.67824 162.178 2.52701 163.062 3.34667C163.314 3.58433 163.335 3.71528 163.062 3.98204C162.001 5.10726 162.016 5.11696 160.919 4.06449C159.666 2.82771 159.666 2.82771 158.373 4.04024L158.312 4.09844C157.261 5.10726 157.009 5.06846 156.109 3.88989C155.958 3.69103 155.973 3.59403 156.14 3.43398C157.079 2.54641 158.009 1.64914 158.944 0.756718C159.043 0.665 159.16 0.593606 159.289 0.546905C159.417 0.500203 159.554 0.479177 159.692 0.485113Z" fill="white"/>
<path d="M187.962 23.4843C187.651 23.4716 187.358 23.3448 187.143 23.1302C186.274 22.2912 185.415 21.4472 184.526 20.6324C184.207 20.3414 184.303 20.1959 184.556 19.9389C185.597 18.9009 185.592 18.8912 186.648 19.9098C187.941 21.1465 187.941 21.1465 189.21 19.934L189.27 19.8758C190.316 18.8718 190.584 18.9058 191.483 20.0844C191.65 20.3026 191.589 20.3996 191.438 20.5694C190.501 21.4553 189.572 22.3461 188.649 23.2418C188.451 23.3886 188.211 23.4733 187.962 23.4843Z" fill="white"/>
<path d="M11.6213 5.33521C12.4348 5.33521 13.2534 5.36431 14.0618 5.33521C14.5671 5.33521 14.6631 5.46616 14.6631 5.91722C14.653 7.27525 14.6985 7.27525 13.309 7.27525C11.9195 7.27525 10.6159 7.24615 9.26677 7.27525C8.71097 7.27525 8.56949 7.13459 8.5796 6.61078C8.61497 5.33521 8.5897 5.33521 9.94889 5.33521H11.6213Z" fill="white"/>
<path d="M25.7687 21.3113C24.9552 21.3113 24.1417 21.2822 23.3332 21.3113C22.828 21.3113 22.732 21.1804 22.732 20.7293C22.732 19.3616 22.7067 19.3616 24.0962 19.3616C25.4857 19.3616 26.7893 19.3907 28.1384 19.3616C28.6942 19.3616 28.8357 19.5071 28.8256 20.026C28.7952 21.3113 28.8256 21.3162 27.4613 21.3162L25.7687 21.3113Z" fill="white"/>
<path d="M86.907 21.3113C86.0935 21.3113 85.28 21.2822 84.4665 21.3113C83.9916 21.3113 83.8652 21.1901 83.8652 20.7342C83.8652 19.3616 83.8652 19.3616 85.2295 19.3616C86.5937 19.3616 87.9226 19.3907 89.2717 19.3616C89.8224 19.3616 89.974 19.4925 89.9588 20.0212C89.9588 21.3065 89.9588 21.3113 88.5946 21.3113H86.907Z" fill="white"/>
<path d="M175.891 19.3712C176.679 19.3712 177.467 19.4003 178.25 19.3712C178.725 19.347 178.852 19.4925 178.852 19.9484C178.852 21.3209 178.852 21.3209 177.407 21.3209C176.088 21.3209 174.769 21.2918 173.45 21.3209C172.905 21.3209 172.753 21.19 172.763 20.6613C172.793 19.3712 172.763 19.3712 174.127 19.3712H175.891Z" fill="white"/>
<path d="M147.676 3.7298C147.378 3.92632 147.091 4.13843 146.817 4.36516C145.776 5.33518 145.781 5.33518 144.746 4.36516C143.983 3.6328 143.983 3.6328 144.746 2.91013C145.756 1.94011 145.756 1.94011 146.767 2.91013C147.004 3.13809 147.277 3.36604 147.676 3.7298Z" fill="white"/>
<path d="M37.6023 18.3674L39.4112 20.1232C39.3102 20.2396 39.204 20.3608 39.0878 20.4772C37.6529 21.8935 37.6579 21.8886 36.2431 20.4772C35.9956 20.225 35.8844 20.0795 36.2128 19.7934C36.6928 19.3375 37.1274 18.8476 37.6023 18.3674Z" fill="white"/>
<path fill-rule="evenodd" clip-rule="evenodd" d="M128.373 0.364192C128.361 0.242477 128.348 0.120939 128.339 0L125.798 0.0048501C125.559 0.621543 125.593 1.25679 125.627 1.88904C125.639 2.11205 125.651 2.33469 125.651 2.55601C125.663 3.55438 125.649 4.55722 125.636 5.56214C125.607 7.70116 125.578 9.84962 125.788 11.9846C125.949 13.6142 126.813 14.5067 128.476 14.8607C129.717 15.0811 130.983 15.1398 132.24 15.0353C132.338 15.0117 132.441 15.0074 132.541 15.0226C132.641 15.0379 132.737 15.0723 132.822 15.1239C132.908 15.1756 132.982 15.2433 133.04 15.3231C133.098 15.4029 133.139 15.493 133.16 15.5882C133.756 17.0894 134.803 18.3874 136.167 19.3187C137.531 20.25 139.152 20.7729 140.825 20.8215C141.02 20.8468 141.219 20.8285 141.406 20.7682C141.911 20.5111 142.234 18.6729 141.911 18.2364C140.875 16.8396 141.572 15.2681 143.336 15.1178C144.151 15.0467 144.974 15.0535 145.798 15.0604C146.042 15.0624 146.286 15.0644 146.529 15.0644C147.575 15.1217 148.613 14.8658 149.5 14.3321C149.593 14.253 149.712 14.2093 149.836 14.2093C149.96 14.2093 150.08 14.253 150.172 14.3321C151.02 14.8687 152.029 15.1227 153.042 15.0547H165.836C166.425 15.0531 167.013 15.0223 167.599 14.9626C167.996 14.9209 168.37 14.7488 168.729 14.5843C169.037 14.4427 169.333 14.3068 169.62 14.2642C169.948 14.2155 170.274 14.3966 170.617 14.5878C170.924 14.7587 171.245 14.9377 171.596 14.9674C171.874 14.9997 172.154 15.0175 172.435 15.0208H178.068C178.489 15.0584 178.913 15.0002 179.306 14.851C179.796 14.5478 180.368 14.3901 180.95 14.3979C181.533 14.4056 182.1 14.5785 182.581 14.8947C182.813 14.9901 183.067 15.0268 183.318 15.0014C184.058 15.0014 184.797 15.0041 185.536 15.0068C187.013 15.0122 188.488 15.0175 189.963 15.0014C191.035 15.0014 192.063 14.5926 192.821 13.8649C193.579 13.1373 194.005 12.1504 194.005 11.1213C193.989 10.0451 193.864 8.97304 193.631 7.92022C193.338 6.24694 193.318 6.24694 191.64 6.73195C191.506 6.775 191.37 6.80903 191.231 6.8338C190.761 6.89685 190.66 7.1151 190.786 7.55646C191.123 8.63872 191.308 9.75926 191.337 10.8885C191.342 11.9313 190.877 12.4163 189.755 12.4163C188.729 12.4396 187.724 12.4419 186.7 12.4442C186.021 12.4458 185.334 12.4473 184.627 12.4551C182.853 12.4745 182.116 12.3484 182.267 10.1949V9.79236C182.267 7.76502 182.267 7.76502 180.135 7.85232C180.107 7.85723 180.077 7.85723 180.049 7.85232C179.65 7.80867 179.544 7.99297 179.544 8.37128V10.6314C179.544 12.0671 179.231 12.4163 177.76 12.4405C175.997 12.4648 174.228 12.4405 172.46 12.4066C171.485 12.3872 171.035 11.9604 171.035 10.9903V8.97269C171.035 8.30454 171.048 8.0158 170.912 7.8984C170.776 7.78059 170.49 7.83532 169.893 7.85232C169.585 7.87418 169.276 7.87418 168.968 7.85232C168.463 7.79412 168.246 7.94447 168.276 8.46343C168.293 8.94503 168.287 9.42878 168.282 9.91325C168.279 10.1558 168.276 10.3984 168.276 10.6411C168.276 12.0913 167.998 12.4454 166.508 12.4454C163.422 12.4712 160.334 12.4626 157.247 12.454C155.703 12.4497 154.16 12.4454 152.618 12.4454C151.627 12.4405 151.193 12.0089 151.193 11.0388V8.53619C151.164 7.89874 151.163 7.89871 149.454 7.8678C149.356 7.86602 149.252 7.86413 149.141 7.86202C148.525 7.85232 148.459 8.08027 148.459 8.56529V10.743C148.454 12.0816 148.161 12.3969 146.736 12.4551C145.673 12.5181 144.606 12.5181 143.543 12.4551C140.941 12.2514 137.919 14.8268 139.375 18.1491C137.714 17.4604 136.356 16.2375 135.534 14.691C137.275 14.4205 138.933 13.7864 140.39 12.8334C142.74 11.1795 142.396 7.49341 139.769 6.32939C139.227 6.08377 138.64 5.94325 138.042 5.91592C137.444 5.88858 136.846 5.97497 136.282 6.17011C135.719 6.36524 135.201 6.6653 134.759 7.05303C134.317 7.44076 133.959 7.90853 133.705 8.42948C133.458 9.0274 133.251 9.63974 133.084 10.2628C133.005 10.5193 133.007 10.8235 133.009 11.122C133.013 11.6475 133.017 12.1552 132.579 12.3532C132.099 12.5697 131.487 12.5196 130.875 12.4695C130.609 12.4477 130.343 12.426 130.088 12.426H129.921C128.875 12.3581 128.481 12.0477 128.481 11.0437C128.42 7.70703 128.42 4.37521 128.42 1.03855V1.03792C128.42 0.814504 128.397 0.589045 128.373 0.364192ZM135.828 9.8069C135.61 10.3568 135.486 10.9364 135.459 11.5238C135.457 11.5393 135.456 11.556 135.454 11.5734C135.435 11.7634 135.405 12.0496 135.812 12.0186C137.01 11.8682 138.192 11.6257 139.112 10.806C139.261 10.6738 139.375 10.5089 139.444 10.3255C139.513 10.142 139.534 9.94524 139.507 9.75198C139.48 9.55873 139.404 9.37464 139.287 9.21533C139.17 9.05603 139.015 8.9262 138.834 8.83688C138.574 8.69248 138.286 8.60285 137.987 8.57397C137.688 8.5451 137.387 8.57763 137.102 8.66942C136.818 8.7612 136.557 8.91013 136.337 9.10627C136.117 9.30241 135.944 9.54126 135.828 9.8069Z" fill="white"/>
<path fill-rule="evenodd" clip-rule="evenodd" d="M16.4617 12.5085H8.88262H1.81384C0.0851138 12.5085 0.0848987 12.5132 0.0102456 14.1217C0.00852972 14.1587 0.00677454 14.1965 0.00495813 14.2352C-0.030411 14.9481 0.161593 15.1421 0.914451 15.1421H16.7346C17.3523 15.1529 17.9684 15.0777 18.5637 14.919C19.9279 14.5213 20.221 14.5262 21.656 14.919C21.8708 14.977 22.0906 15.0159 22.3128 15.0354C24.2517 15.1722 26.1978 15.1868 28.1386 15.0791C28.6726 15.0953 29.1997 14.9603 29.6544 14.6911C30.3416 14.2061 30.9126 14.3079 31.5795 14.7202C32.2914 15.1727 33.1636 15.1416 33.9825 15.1125C34.0238 15.111 34.0649 15.1096 34.1059 15.1082C34.561 15.0913 35.0213 15.1011 35.4823 15.111C37.0025 15.1436 38.5313 15.1763 39.9115 14.2497C39.9694 14.212 40.039 14.1943 40.1088 14.1996C40.1786 14.2049 40.2445 14.2328 40.2955 14.2788C41.6641 15.2 43.1866 15.1114 44.7069 15.023C44.9716 15.0075 45.2361 14.9922 45.4998 14.9821C45.8991 14.969 46.2767 14.8051 46.5508 14.5262C46.9399 14.1236 47.2733 14.1964 47.723 14.4583C48.749 15.0709 49.9101 15.4446 51.1134 15.5495C51.8853 15.6573 52.6717 15.4946 53.3287 15.0911C53.9857 14.6875 54.4693 14.0703 54.6908 13.3525C55.2734 11.7718 55.2065 10.0374 54.5038 8.50235C54.2052 7.78325 53.6878 7.16723 53.019 6.73464C52.3502 6.30205 51.5611 6.07297 50.7547 6.07729C49.9669 6.00882 49.176 6.17155 48.4867 6.54395C47.7974 6.91636 47.2421 7.48088 46.8944 8.16284C46.5174 8.85093 46.2241 9.57838 46.0203 10.3308C45.3533 12.5667 45.3129 12.5958 42.8977 12.4455C41.9124 12.3824 41.4627 11.9944 41.4627 11.0244C41.4045 10.2461 41.4045 9.4649 41.4627 8.68665C41.5712 7.85318 41.1171 7.86282 40.5895 7.87403C40.5276 7.87535 40.4647 7.87668 40.4016 7.87668C39.2779 7.89367 38.8962 7.82968 38.7731 7.97893C38.6854 8.08537 38.7292 8.30026 38.7292 8.7303V10.908C38.7292 12.0235 38.3805 12.3727 37.1881 12.4455C35.983 12.5085 34.7753 12.5085 33.5703 12.4455C32.3172 12.3824 31.9787 12.0332 31.9787 10.7964V9.82642C31.9787 8.79014 31.9787 8.26519 31.7165 8.01411C31.4436 7.75283 30.8867 7.78813 29.7504 7.85243C29.3462 7.89123 29.2199 8.00278 29.2199 8.37624V10.874C29.2199 12.0235 28.8864 12.3776 27.7041 12.4309C26.8032 12.4716 25.9052 12.4672 25.0079 12.4628C24.7276 12.4614 24.4474 12.46 24.1672 12.46C21.7317 12.46 21.4084 12.1448 21.4084 9.81187C21.4084 8.80815 21.4084 8.30016 21.1545 8.05402C20.8919 7.79944 20.3577 7.82498 19.2711 7.87183C18.8466 7.89123 18.695 7.99793 18.695 8.42959V11.2524C18.7166 11.3987 18.7054 11.5478 18.6621 11.6897C18.6188 11.8316 18.5445 11.9629 18.444 12.075C18.3435 12.187 18.2193 12.2772 18.0796 12.3394C17.9399 12.4016 17.788 12.4345 17.634 12.4358C17.2453 12.4845 16.8537 12.5088 16.4617 12.5085ZM50.4415 12.8917C51.9405 13.3961 52.7034 12.8869 52.7304 11.3639C52.7578 10.9852 52.7057 10.605 52.5772 10.246C52.4488 9.8869 52.2466 9.55623 51.9826 9.27354C51.4116 8.66242 50.3707 8.44417 49.7695 8.84188C48.7387 9.52574 48.4507 10.6752 48.2991 11.7131C48.2462 12.0791 48.7679 12.2604 49.2819 12.439C49.5036 12.516 49.7238 12.5926 49.8958 12.6832C50.0701 12.7697 50.2529 12.8395 50.4415 12.8917Z" fill="white"/>
<path fill-rule="evenodd" clip-rule="evenodd" d="M103.344 16.0782C103.423 15.0338 103.431 13.9856 103.369 12.9401L103.384 12.9498C103.384 12.6265 103.393 12.3032 103.401 11.9798C103.418 11.3331 103.435 10.6865 103.384 10.0398C103.212 7.77478 101.883 6.25185 99.923 5.96569C99.2374 5.85085 98.5341 5.8797 97.8613 6.05027C97.1884 6.22083 96.562 6.52907 96.0249 6.95385C95.4879 7.37863 95.0528 7.90989 94.7498 8.5112C94.4467 9.1125 94.2826 9.76963 94.269 10.4375C94.1073 13.0953 95.714 14.8656 98.4779 15.0354C99.0067 15.087 99.5392 15.0951 100.069 15.0596C100.706 14.9966 100.802 15.273 100.671 15.7581C100.546 16.244 100.283 16.6873 99.9124 17.039C99.5415 17.3908 99.0765 17.6373 98.5688 17.7514C97.7029 17.9856 96.8055 18.0951 95.906 18.0764C95.5928 18.0716 95.4058 18.1104 95.3603 18.4935C95.0976 20.5839 95.4614 20.9186 97.5886 20.5839L98.1697 20.5015C101.115 20.031 103.01 18.4644 103.344 16.0782ZM99.3066 12.4551C100.721 12.4745 100.721 12.4745 100.767 11.2329C100.752 11.0996 100.741 10.9662 100.731 10.8332C100.709 10.5647 100.688 10.2977 100.63 10.0349C100.388 8.91455 99.7916 8.45379 98.7407 8.51199C98.2749 8.53656 97.8363 8.73006 97.5136 9.05333C97.1909 9.3766 97.0082 9.80549 97.0025 10.2532C96.8408 11.7519 97.5533 12.4551 99.3066 12.4551Z" fill="white"/>
<path fill-rule="evenodd" clip-rule="evenodd" d="M66.6241 14.4812C67.3132 14.8829 68.1084 15.0855 68.9143 15.0645C71.3144 15.0597 73.0171 14.1576 73.7245 12.6298C74.5431 10.9371 74.0883 9.3899 72.9818 7.95912C72.1007 6.88151 71.1542 5.85474 70.1472 4.88416C70.0192 4.75461 69.8897 4.60065 69.7592 4.44548C69.4206 4.04296 69.0752 3.63228 68.7324 3.61828C68.4228 3.60563 68.0981 3.92898 67.7626 4.26312C67.5835 4.44152 67.4012 4.623 67.2166 4.75805C66.8326 5.03936 66.6305 5.29157 67.1357 5.62622C67.4793 5.85418 67.3631 6.04333 67.1357 6.27614C66.6589 6.73302 66.2133 7.21905 65.8018 7.73117C64.6397 9.2832 64.1445 11.0001 65.0287 12.7995C65.3811 13.4956 65.9349 14.0795 66.6241 14.4812ZM67.4591 9.87489C66.8174 11.3978 67.6157 12.5812 69.3438 12.5812C71.1324 12.6103 71.9914 11.2717 71.1274 9.75848C70.6864 9.04721 70.1495 8.3949 69.5307 7.81844C69.3488 7.61959 69.2326 7.59534 69.0254 7.81844C68.3897 8.41711 67.8606 9.11182 67.4591 9.87489Z" fill="white"/>
</g>
<defs>
<clipPath id="clip0">
<path d="M0 0H194V23.4842H0V0Z" fill="white"/>
</clipPath>
</defs>
</svg>
