<svg xmlns="http://www.w3.org/2000/svg" width="26" height="25" viewBox="0 0 26 25"><title>4</title><g id="Layer_2" data-name="Layer 2"><g id="Layer_1-2" data-name="Layer 1"><path d="M2.14,18.43a.52.52,0,0,0,.31.66l2.64,1a.57.57,0,0,0,.18,0,.5.5,0,0,0,.48-.33.51.51,0,0,0-.3-.66l-2.65-1A.52.52,0,0,0,2.14,18.43Z" style="fill:#002252"/><path d="M6.29,20.52l.22.09a.57.57,0,0,0,.18,0,.51.51,0,0,0,.18-1l-.23-.09a.51.51,0,0,0-.66.31A.5.5,0,0,0,6.29,20.52Z" style="fill:#002252"/><path d="M2.14,16.34a.52.52,0,0,0,.31.66l2,.76a.57.57,0,0,0,.18,0,.52.52,0,0,0,.48-.34.5.5,0,0,0-.31-.65L2.8,16A.51.51,0,0,0,2.14,16.34Z" style="fill:#002252"/><path d="M24.77,17.38v2l-11.16,4.1V10.15l11.16-4.1v6H26V5.17a.62.62,0,0,0-.4-.58L13.21,0a.61.61,0,0,0-.42,0L.4,4.59l-.14.08a.61.61,0,0,0-.26.5V19.83a.62.62,0,0,0,.4.58L12.79,25a.57.57,0,0,0,.42,0L25.6,20.41a.62.62,0,0,0,.4-.58V17.38ZM12.39,23.51,1.22,19.41V6.05l2.12.77V13a.62.62,0,0,0,.4.58l5.55,2a.61.61,0,0,0,.56-.07.6.6,0,0,0,.27-.5V9.32l2.27.83ZM8.89,8.87v5.26L4.57,12.54V7.28ZM5.72,6.39,9.5,5l3.78,1.39L9.5,7.78ZM13,9.07l-1.73-.63,4-1.47a.61.61,0,0,0,0-1.15l-5.55-2a.64.64,0,0,0-.43,0L4,5.74,2.38,5.17,13,1.26,23.61,5.17Z" style="fill:#002252"/><path d="M16.29,17.74V17.1l-1.71.61a.61.61,0,0,1-.49,0,.35.35,0,0,1-.16-.34.34.34,0,0,1,0-.14c0-.05,0-.11.07-.17l.1-.18c0-.05.08-.13.13-.21l1.81-3.07c.12-.2.22-.35.29-.45a.63.63,0,0,1,.28-.21c.34-.12.52,0,.52.41V16L17.3,16a.9.9,0,0,1,.42-.08c.1,0,.16.09.16.25a.49.49,0,0,1-.13.34,1,1,0,0,1-.39.23l-.21.07v.64a.71.71,0,0,1-.12.43.56.56,0,0,1-.31.24.3.3,0,0,1-.31,0A.4.4,0,0,1,16.29,17.74Zm-1.47-.88,1.47-.53v-2Z" style="fill:#007afe"/><path d="M19.71,15.54l-1.08.38a.44.44,0,0,1-.37,0,.24.24,0,0,1-.13-.25.56.56,0,0,1,.12-.34.9.9,0,0,1,.38-.25l1.08-.38a.46.46,0,0,1,.38,0,.26.26,0,0,1,.12.25.56.56,0,0,1-.12.34A.77.77,0,0,1,19.71,15.54Z" style="fill:#007afe"/><path d="M23.58,11.4,22,12l-.19,1.18a2.85,2.85,0,0,1,.89-.58,1.58,1.58,0,0,1,.62-.1,1.18,1.18,0,0,1,.5.16,1.12,1.12,0,0,1,.34.4,1.38,1.38,0,0,1,.12.59,2.53,2.53,0,0,1-.22,1,3,3,0,0,1-.64.87,2.84,2.84,0,0,1-1,.59,1.85,1.85,0,0,1-1,.12.81.81,0,0,1-.7-.78.5.5,0,0,1,.11-.29.6.6,0,0,1,.28-.22.3.3,0,0,1,.42.18.71.71,0,0,0,.37.34.72.72,0,0,0,.52,0,1.26,1.26,0,0,0,.77-.79,1.66,1.66,0,0,0,.11-.58,1,1,0,0,0-.12-.52.46.46,0,0,0-.31-.24.82.82,0,0,0-.43,0,1.32,1.32,0,0,0-.42.22,5.19,5.19,0,0,0-.37.39,1.32,1.32,0,0,1-.39.32.35.35,0,0,1-.3,0,.26.26,0,0,1-.13-.23s0-.09,0-.25L21.15,12a1.09,1.09,0,0,1,.18-.49.8.8,0,0,1,.42-.28l1.8-.64q.54-.19.54.21a.52.52,0,0,1-.13.34A1,1,0,0,1,23.58,11.4Z" style="fill:#007afe"/></g></g></svg>